<svg id="visual" viewBox="0 0 900 600" width="900" height="600" xmlns="http://www.w3.org/2000/svg" xmlns:xlink="http://www.w3.org/1999/xlink" version="1.1"><rect x="0" y="0" width="900" height="600" fill="#222831"></rect><defs><linearGradient id="grad1_0" x1="33.3%" y1="0%" x2="100%" y2="100%"><stop offset="20%" stop-color="#222831" stop-opacity="1"></stop><stop offset="80%" stop-color="#222831" stop-opacity="1"></stop></linearGradient></defs><defs><linearGradient id="grad2_0" x1="0%" y1="0%" x2="66.7%" y2="100%"><stop offset="20%" stop-color="#222831" stop-opacity="1"></stop><stop offset="80%" stop-color="#222831" stop-opacity="1"></stop></linearGradient></defs><g transform="translate(900, 0)"><path d="M0 486.7C-35.6 468.9 -71.2 451 -97.7 428C-124.2 405 -141.6 376.7 -180.9 375.7C-220.3 374.7 -281.6 400.9 -303.5 380.6C-325.4 360.2 -307.9 293.4 -323.7 258.1C-339.4 222.9 -388.5 219.2 -409 197C-429.6 174.8 -421.7 134 -429.9 98.1C-438.2 62.2 -462.5 31.1 -486.7 0L0 0Z" fill="#393E46"></path></g><g transform="translate(0, 600)"><path d="M0 -486.7C35.5 -468.9 71.1 -451 97.7 -428C124.3 -404.9 142 -376.7 180.1 -373.9C218.1 -371.1 276.6 -393.7 297.4 -372.9C318.2 -352.2 301.3 -288.1 322.9 -257.5C344.5 -226.9 404.5 -230 436.1 -210C467.7 -190 470.8 -147.1 474.5 -108.3C478.3 -69.5 482.5 -34.7 486.7 0L0 0Z" fill="#393E46"></path></g></svg>